<?xml version="1.0" encoding="UTF-8" standalone="no"?>
<svg
   id="Icons"
   viewBox="0 0 24 24"
   version="1.1"
   sodipodi:docname="find.svg"
   inkscape:version="1.1.2 (0a00cf5339, 2022-02-04)"
   xmlns:inkscape="http://www.inkscape.org/namespaces/inkscape"
   xmlns="http://www.w3.org/2000/svg"
   xmlns:svg="http://www.w3.org/2000/svg">
  <sodipodi:namedview
     id="namedview23"
     pagecolor="#505050"
     bordercolor="#eeeeee"
     borderopacity="1"
     inkscape:pageshadow="0"
     inkscape:pageopacity="0"
     inkscape:pagecheckerboard="0"
     showgrid="false"
     inkscape:zoom="26.833333"
     inkscape:cx="11.981366"
     inkscape:cy="11.962733"
     inkscape:window-width="3200"
     inkscape:window-height="1900"
     inkscape:window-x="0"
     inkscape:window-y="0"
     inkscape:window-maximized="1"
     inkscape:current-layer="Icons" />
  <defs
     id="defs14">
    <style
       id="style2">.cls-1{fill:url(#linear-gradient);}.cls-2{fill:url(#linear-gradient-2);}.cls-3{fill:#cffeff;}</style>
    <linearGradient
       gradientUnits="userSpaceOnUse"
       id="linear-gradient"
       x1="18.894"
       x2="18.894"
       y1="15.287"
       y2="22.614"
       gradientTransform="matrix(-1,0,0,1,23.989041,0)">
      <stop
         offset="0"
         stop-color="#5d5c66"
         id="stop4" />
      <stop
         offset="1"
         stop-color="#48474f"
         id="stop6" />
    </linearGradient>
    <linearGradient
       gradientUnits="userSpaceOnUse"
       id="linear-gradient-2"
       x1="9.998"
       x2="9.998"
       y1="1.149"
       y2="18.652"
       gradientTransform="translate(-23.989041)">
      <stop
         offset="0"
         stop-color="#a6f9ff"
         id="stop9" />
      <stop
         offset="1"
         stop-color="#3ed0f7"
         id="stop11" />
    </linearGradient>
  </defs>
  <path
     class="cls-1"
     d="m 6.3820413,14.79 -4.8,4.8 a -1.9940411,1.9940411 0 0 0 2.82,2.82 l 4.8,-4.8 z"
     id="path16"
     style="fill:url(#linear-gradient)" />
  <circle
     class="cls-2"
     cx="-13.991041"
     cy="10"
     r="9"
     id="circle18"
     style="fill:url(#linear-gradient-2)"
     transform="scale(-1,1)" />
  <path
     class="cls-3"
     d="m 18.989041,11 a -1,1 0 0 0 1,-1 -6.006,6.006 0 0 0 -6,-6 -1,1 0 0 0 0,2 -4,4 0 0 1 4,4 -1,1 0 0 0 1,1 z"
     id="path20" />
</svg>
